<svg viewBox="0 0 640 400" data-background-color="#fdfbe2" preserveAspectRatio="xMidYMid meet" height="400" width="640" xmlns="http://www.w3.org/2000/svg" xmlns:xlink="http://www.w3.org/1999/xlink"><rect width="640" height="400" x="0" y="0" opacity="1" fill="#fdfbe2" data-fill-palette-color="background" id="background"></rect><g id="tight-bounds" transform="matrix(1,0,0,1,180,60)"><svg viewBox="0 0 280 280" height="280" width="280"><g><svg viewBox="0 0 280 280" height="280" width="280"><g><svg viewBox="0 0 280 280" height="280" width="280"><g id="textblocktransform"><svg viewBox="0 0 280 280" height="280" width="280" id="textblock"><g><svg viewBox="0 0 280 280" height="280" width="280"><g transform="matrix(1,0,0,1,57.50420886156945,57.50420886156945)"><svg viewBox="0 0 164.9915822768611 164.9915822768611" height="164.9915822768611" width="164.9915822768611"><g><circle r="82.49579113843055" cx="82.49579113843055" cy="82.49579113843055" fill="#454545" data-fill-palette-color="accent"></circle><svg xmlns:x="http://ns.adobe.com/Extensibility/1.0/" xmlns:i="http://ns.adobe.com/AdobeIllustrator/10.0/" xmlns:graph="http://ns.adobe.com/Graphs/1.0/" xmlns="http://www.w3.org/2000/svg" xmlns:xlink="http://www.w3.org/1999/xlink" version="1.1" x="24.74873734152917" y="24.748737341529164" viewBox="6 6 52 52" enable-background="new 0 0 64 64" xml:space="preserve" height="115.49410759380275" width="115.49410759380275" class="icon-o-0" data-fill-palette-color="quaternary" id="o-0"><g fill="#fdfbe2" data-fill-palette-color="quaternary"><g fill="#fdfbe2" data-fill-palette-color="quaternary"><path d="M57.961 17.608l-2-10C55.774 6.673 54.953 6 54 6H10C9.047 6 8.226 6.673 8.039 7.608l-2 10C6.013 17.737 6 17.868 6 18c0 3.309 2.691 6 6 6 1.535 0 2.938-0.58 4-1.532C17.062 23.42 18.465 24 20 24s2.938-0.58 4-1.532C25.062 23.42 26.465 24 28 24s2.938-0.58 4-1.532C33.062 23.42 34.465 24 36 24s2.938-0.58 4-1.532C41.062 23.42 42.465 24 44 24s2.938-0.58 4-1.532C49.062 23.42 50.465 24 52 24c3.309 0 6-2.691 6-6C58 17.868 57.987 17.737 57.961 17.608z" fill="#fdfbe2" data-fill-palette-color="quaternary"></path><rect x="18" y="38" width="12" height="8" fill="#fdfbe2" data-fill-palette-color="quaternary"></rect><path d="M54 26H10c-1.104 0-2 0.896-2 2v28c0 1.104 0.896 2 2 2h26V36c0-1.104 0.896-2 2-2h10c1.104 0 2 0.896 2 2v22h4c1.104 0 2-0.896 2-2V28C56 26.896 55.104 26 54 26zM34 48c0 1.104-0.896 2-2 2H16c-1.104 0-2-0.896-2-2V36c0-1.104 0.896-2 2-2h16c1.104 0 2 0.896 2 2V48z" fill="#fdfbe2" data-fill-palette-color="quaternary"></path><path d="M40 44c1.104 0 2 0.896 2 2s-0.896 2-2 2v10h6V38h-6V44z" fill="#fdfbe2" data-fill-palette-color="quaternary"></path></g></g></svg></g></svg></g><path d="M28.169 173.736v0c1.075-0.386 2.156-0.541 3.242-0.464 1.084 0.07 2.105 0.331 3.065 0.785 0.96 0.453 1.811 1.076 2.554 1.867 0.743 0.792 1.306 1.723 1.69 2.792v0l4.266 11.891-5.177 1.858-4.266-11.892c-0.128-0.356-0.313-0.667-0.557-0.933-0.25-0.263-0.533-0.472-0.849-0.627-0.323-0.152-0.664-0.238-1.024-0.257-0.36-0.019-0.721 0.036-1.083 0.167v0c-0.356 0.128-0.67 0.315-0.943 0.56-0.272 0.246-0.484 0.53-0.636 0.853-0.152 0.323-0.238 0.664-0.257 1.023-0.019 0.36 0.035 0.718 0.163 1.074v0l1.86 5.187c0.384 1.069 0.546 2.151 0.487 3.244-0.068 1.09-0.329 2.112-0.785 3.065-0.447 0.958-1.069 1.809-1.867 2.554-0.807 0.741-1.745 1.303-2.814 1.687v0c-1.069 0.384-2.147 0.545-3.235 0.483-1.084-0.07-2.102-0.333-3.056-0.787-0.958-0.447-1.812-1.068-2.564-1.865-0.747-0.805-1.313-1.741-1.696-2.81v0l-4.128-11.507 5.186-1.861 4.128 11.507c0.13 0.363 0.317 0.677 0.561 0.943 0.243 0.266 0.527 0.474 0.849 0.626 0.314 0.148 0.651 0.232 1.011 0.252 0.36 0.019 0.721-0.036 1.083-0.167v0c0.363-0.13 0.677-0.317 0.943-0.56 0.266-0.243 0.476-0.523 0.63-0.84 0.146-0.321 0.229-0.661 0.248-1.02 0.019-0.36-0.036-0.721-0.167-1.084v0l-1.86-5.186c-0.384-1.069-0.537-2.147-0.461-3.233 0.07-1.084 0.331-2.105 0.784-3.065 0.453-0.96 1.079-1.812 1.877-2.557 0.796-0.751 1.729-1.319 2.798-1.703zM55.716 211.539l-14.099 8.608c-1.298 0.793-2.668 1.29-4.109 1.492-1.437 0.208-2.838 0.145-4.201-0.189-1.373-0.337-2.651-0.926-3.835-1.768-1.189-0.838-2.18-1.907-2.972-3.205v0c-0.793-1.298-1.292-2.671-1.498-4.117-0.208-1.437-0.145-2.838 0.19-4.202 0.329-1.36 0.913-2.635 1.751-3.824 0.838-1.189 1.907-2.18 3.205-2.972v0l14.099-8.608 2.861 4.685-14.099 8.609c-0.641 0.391-1.17 0.882-1.588 1.471-0.415 0.596-0.708 1.237-0.879 1.926-0.166 0.685-0.195 1.388-0.09 2.109 0.106 0.721 0.356 1.405 0.751 2.052v0c0.391 0.641 0.883 1.173 1.476 1.596 0.597 0.429 1.238 0.727 1.923 0.893 0.69 0.162 1.394 0.192 2.109 0.089 0.716-0.102 1.394-0.349 2.035-0.74v0l14.099-8.608zM61.411 224.915l-3.835-3.942-7.898 7.684 3.835 3.942c0.528 0.543 1.128 0.95 1.801 1.222 0.668 0.277 1.354 0.42 2.059 0.43 0.709 0.014 1.404-0.11 2.083-0.373 0.685-0.268 1.296-0.663 1.834-1.186v0c0.543-0.528 0.955-1.128 1.237-1.801 0.282-0.673 0.425-1.363 0.43-2.073 0.01-0.704-0.115-1.394-0.373-2.069-0.254-0.68-0.645-1.291-1.173-1.834zM45.75 232.478l-3.949 3.842-3.842-3.949 19.717-19.183 7.677 7.891c0.709 0.728 1.294 1.516 1.758 2.364 0.467 0.852 0.81 1.737 1.027 2.656 0.222 0.914 0.327 1.846 0.314 2.795-0.008 0.953-0.139 1.886-0.391 2.798-0.257 0.917-0.628 1.793-1.114 2.627-0.486 0.844-1.091 1.617-1.814 2.322v0c-1.081 1.051-2.301 1.836-3.661 2.352-1.36 0.526-2.747 0.777-4.161 0.753-1.409-0.019-2.786-0.306-4.131-0.86-1.34-0.559-2.539-1.381-3.595-2.466v0zM77.602 258.2l-3.101 4.554-15.59-10.615 15.483-22.738 15.589 10.615-3.095 4.546-11.036-7.514-3.101 4.554 7.47 5.086-3.101 4.554-7.47-5.086-3.084 4.53zM99.961 249.774l-5.083-2.101-4.209 10.184 5.082 2.101c0.7 0.289 1.412 0.426 2.138 0.409 0.723-0.01 1.41-0.15 2.061-0.42 0.657-0.268 1.245-0.657 1.765-1.168 0.523-0.517 0.927-1.122 1.214-1.816v0c0.289-0.7 0.43-1.414 0.423-2.143-0.008-0.729-0.15-1.42-0.426-2.074-0.27-0.651-0.658-1.235-1.162-1.752-0.502-0.524-1.103-0.93-1.803-1.22zM88.575 262.921l-2.104 5.092-5.092-2.105 10.508-25.422 10.175 4.205c0.939 0.388 1.789 0.88 2.549 1.475 0.767 0.597 1.432 1.275 1.995 2.032 0.566 0.752 1.031 1.565 1.395 2.441 0.37 0.879 0.62 1.787 0.75 2.725 0.127 0.944 0.133 1.895 0.017 2.854-0.112 0.967-0.361 1.917-0.747 2.85v0c-0.36 0.872-0.822 1.676-1.385 2.413-0.557 0.74-1.195 1.396-1.914 1.969-0.715 0.581-1.496 1.063-2.344 1.446-0.854 0.38-1.742 0.649-2.663 0.808v0l0.07 7.813-5.405-2.235-0.099-6.046zM139.192 260.582l-2.998 19.418-5.416-0.836 2.998-19.418c0.059-0.381 0.041-0.746-0.052-1.097-0.1-0.352-0.253-0.667-0.459-0.948-0.211-0.288-0.47-0.526-0.777-0.714-0.307-0.189-0.651-0.312-1.031-0.371v0c-0.374-0.058-0.736-0.043-1.086 0.044-0.356 0.086-0.675 0.235-0.956 0.447-0.287 0.204-0.525 0.46-0.713 0.767-0.189 0.307-0.312 0.651-0.371 1.031v0l-2.998 19.418-5.445-0.84 2.998-19.418c0.059-0.381 0.045-0.746-0.043-1.096-0.087-0.35-0.237-0.665-0.449-0.946-0.204-0.287-0.46-0.525-0.767-0.713-0.307-0.189-0.651-0.312-1.031-0.371v0c-0.381-0.059-0.746-0.045-1.096 0.043-0.35 0.087-0.668 0.236-0.956 0.447-0.28 0.205-0.515 0.462-0.703 0.768-0.189 0.307-0.312 0.651-0.371 1.032v0l-2.998 19.417-5.445-0.84 2.998-19.418c0.173-1.123 0.547-2.147 1.119-3.073 0.581-0.932 1.299-1.708 2.154-2.329 0.85-0.628 1.803-1.076 2.859-1.343 1.064-0.273 2.157-0.322 3.279-0.149v0c1.011 0.156 1.955 0.487 2.831 0.991 0.883 0.506 1.646 1.158 2.289 1.957v0c0.847-0.568 1.765-0.961 2.753-1.178 0.981-0.218 1.977-0.249 2.988-0.094v0c1.129 0.174 2.156 0.551 3.082 1.132 0.926 0.573 1.703 1.288 2.33 2.144 0.622 0.849 1.069 1.805 1.342 2.868 0.267 1.056 0.314 2.145 0.141 3.268zM163.429 272.602l0.448 5.491-18.798 1.536-2.24-27.418 18.798-1.535 0.448 5.481-13.306 1.087 0.448 5.492 9.007-0.736 0.449 5.491-9.007 0.736 0.446 5.462zM175.524 251.993l-5.273 1.561 3.127 10.567 5.274-1.561c0.726-0.215 1.366-0.557 1.92-1.025 0.556-0.462 1.002-1.003 1.338-1.623 0.343-0.621 0.556-1.294 0.639-2.018 0.082-0.731 0.016-1.456-0.197-2.175v0c-0.215-0.726-0.554-1.37-1.019-1.933-0.464-0.562-1.009-1.011-1.634-1.345-0.619-0.336-1.288-0.547-2.006-0.632-0.72-0.092-1.443-0.03-2.169 0.184zM174.933 269.375l1.564 5.283-5.284 1.564-7.806-26.378 10.557-3.124c0.974-0.288 1.944-0.44 2.909-0.456 0.972-0.017 1.915 0.091 2.83 0.326 0.913 0.229 1.786 0.569 2.619 1.023 0.84 0.451 1.605 1 2.296 1.648 0.692 0.654 1.295 1.39 1.807 2.208 0.521 0.823 0.924 1.718 1.21 2.686v0c0.268 0.904 0.414 1.82 0.44 2.748 0.032 0.926-0.052 1.837-0.251 2.735-0.19 0.901-0.495 1.767-0.914 2.598-0.426 0.833-0.947 1.6-1.564 2.301v0l4.965 6.033-5.608 1.66-3.877-4.64zM211.877 250.61l4.893 2.765c-0.574 1.585-1.411 3.02-2.511 4.305-1.097 1.291-2.387 2.352-3.87 3.183v0c-1.142 0.639-2.323 1.106-3.544 1.401-1.22 0.295-2.441 0.426-3.661 0.394-1.223-0.023-2.427-0.202-3.612-0.536-1.184-0.334-2.307-0.81-3.367-1.426-1.055-0.62-2.025-1.374-2.912-2.264-0.886-0.889-1.647-1.902-2.282-3.038v0c-0.639-1.142-1.108-2.326-1.406-3.552-0.295-1.22-0.431-2.442-0.408-3.666 0.029-1.227 0.211-2.432 0.545-3.616 0.334-1.184 0.81-2.307 1.426-3.367 0.614-1.052 1.366-2.02 2.255-2.907 0.889-0.886 1.905-1.649 3.047-2.288v0c1.484-0.831 3.061-1.378 4.732-1.644 1.667-0.271 3.33-0.231 4.988 0.12v0l-0.206 5.608c-1.126-0.367-2.284-0.484-3.474-0.351-1.183 0.13-2.3 0.488-3.348 1.075v0c-1.061 0.594-1.943 1.35-2.647 2.269-0.704 0.919-1.207 1.916-1.51 2.992-0.313 1.073-0.408 2.188-0.286 3.346 0.122 1.157 0.477 2.26 1.065 3.309v0c0.587 1.049 1.339 1.922 2.254 2.62 0.916 0.698 1.914 1.197 2.996 1.497 1.076 0.304 2.191 0.399 3.346 0.286 1.151-0.119 2.257-0.476 3.317-1.07v0c1.049-0.587 1.938-1.351 2.668-2.292 0.732-0.95 1.236-2.001 1.512-3.153zM220.219 239.878l8.296-7.239-3.623-4.151c-0.498-0.571-1.075-1.015-1.731-1.333-0.656-0.318-1.336-0.501-2.038-0.548-0.703-0.048-1.403 0.043-2.102 0.274-0.698 0.221-1.329 0.578-1.895 1.071v0c-0.571 0.498-1.013 1.077-1.326 1.739-0.318 0.656-0.501 1.336-0.548 2.038-0.048 0.703 0.039 1.403 0.259 2.101 0.226 0.693 0.588 1.325 1.086 1.896v0zM229.044 224.866l10.847 12.432-4.151 3.622-3.623-4.151-8.295 7.238 3.622 4.151-4.137 3.61-10.847-12.433c-1-1.146-1.723-2.415-2.17-3.805-0.442-1.386-0.618-2.78-0.527-4.181 0.091-1.401 0.449-2.759 1.075-4.072 0.635-1.313 1.526-2.469 2.672-3.469v0c1.146-1 2.41-1.724 3.792-2.171 1.386-0.442 2.784-0.618 4.195-0.527 1.406 0.096 2.763 0.459 4.071 1.09 1.318 0.631 2.476 1.52 3.476 2.666zM247.191 204.635v0c1.026 0.747 1.915 1.596 2.669 2.548 0.753 0.951 1.363 1.97 1.828 3.057 0.475 1.085 0.804 2.213 0.988 3.382 0.188 1.164 0.222 2.335 0.103 3.514-0.114 1.183-0.383 2.342-0.808 3.479-0.425 1.137-1.011 2.218-1.758 3.243v0l-4.88 6.701-22.237-16.196 4.881-6.7c0.747-1.026 1.596-1.915 2.547-2.669 0.951-0.753 1.97-1.367 3.055-1.842 1.091-0.471 2.219-0.796 3.384-0.974 1.169-0.184 2.341-0.218 3.514-0.103 1.177 0.11 2.334 0.377 3.471 0.802 1.142 0.429 2.223 1.015 3.243 1.758zM243.948 209.089v0c-0.918-0.669-1.905-1.125-2.961-1.368-1.065-0.241-2.119-0.278-3.162-0.109-1.045 0.159-2.037 0.517-2.976 1.074-0.949 0.558-1.757 1.296-2.427 2.214v0l-1.613 2.215 13.337 9.714 1.613-2.215c0.669-0.918 1.128-1.91 1.379-2.977 0.241-1.065 0.281-2.117 0.118-3.156-0.165-1.049-0.526-2.043-1.082-2.982-0.56-0.934-1.302-1.737-2.226-2.41zM259.12 175.622v0c1.206 0.491 2.304 1.122 3.296 1.892 0.992 0.77 1.86 1.64 2.605 2.61 0.747 0.964 1.36 2.014 1.837 3.148 0.477 1.134 0.804 2.304 0.98 3.509 0.182 1.207 0.201 2.438 0.056 3.691-0.145 1.254-0.463 2.483-0.954 3.689v0c-0.494 1.212-1.126 2.314-1.895 3.305-0.77 0.992-1.642 1.856-2.616 2.592-0.971 0.745-2.023 1.356-3.157 1.834-1.134 0.477-2.308 0.806-3.522 0.986-1.211 0.174-2.44 0.189-3.688 0.047-1.247-0.142-2.474-0.459-3.679-0.951v0c-1.212-0.494-2.317-1.127-3.315-1.899-0.992-0.77-1.857-1.639-2.596-2.607-0.736-0.974-1.343-2.028-1.82-3.162-0.477-1.134-0.803-2.307-0.977-3.518-0.17-1.202-0.184-2.427-0.041-3.675 0.142-1.247 0.461-2.477 0.954-3.689v0c0.491-1.206 1.123-2.307 1.895-3.305 0.772-0.998 1.639-1.867 2.602-2.609 0.968-0.739 2.019-1.347 3.153-1.824 1.134-0.477 2.302-0.801 3.505-0.971 1.205-0.176 2.431-0.193 3.679-0.051 1.254 0.145 2.486 0.464 3.698 0.958zM257.056 180.688v0c-1.113-0.454-2.252-0.67-3.415-0.649-1.166 0.027-2.259 0.256-3.281 0.686-1.03 0.434-1.958 1.056-2.784 1.867-0.828 0.817-1.469 1.783-1.922 2.896v0c-0.459 1.126-0.676 2.267-0.653 3.424 0.023 1.157 0.252 2.251 0.686 3.282 0.425 1.034 1.046 1.965 1.863 2.792 0.817 0.828 1.783 1.469 2.897 1.923v0c1.113 0.454 2.246 0.667 3.396 0.641 1.151-0.026 2.243-0.259 3.276-0.699 1.03-0.434 1.961-1.055 2.793-1.863 0.825-0.811 1.467-1.78 1.926-2.906v0c0.454-1.113 0.67-2.252 0.649-3.415-0.03-1.16-0.261-2.255-0.695-3.285-0.436-1.024-1.056-1.951-1.859-2.779-0.805-0.823-1.764-1.461-2.877-1.915z" fill="#454545" data-fill-palette-color="primary"></path><path d="M11.363 106.686V106.686C10.288 106.3 9.356 105.732 8.566 104.983 7.774 104.241 7.151 103.389 6.698 102.429 6.245 101.469 5.984 100.448 5.914 99.364 5.844 98.28 6 97.204 6.384 96.135V96.135L10.65 84.243 15.827 86.1 11.561 97.992C11.433 98.348 11.379 98.706 11.398 99.066 11.423 99.428 11.509 99.769 11.655 100.09 11.807 100.413 12.016 100.696 12.282 100.939 12.547 101.183 12.861 101.369 13.224 101.5V101.5C13.58 101.627 13.941 101.683 14.307 101.666 14.673 101.649 15.018 101.564 15.341 101.412 15.663 101.26 15.946 101.051 16.19 100.785 16.433 100.52 16.619 100.209 16.747 99.852V99.852L18.607 94.666C18.991 93.597 19.553 92.659 20.294 91.852 21.039 91.054 21.891 90.432 22.848 89.985 23.802 89.53 24.824 89.268 25.914 89.2 27.007 89.141 28.089 89.303 29.158 89.687V89.687C30.227 90.07 31.162 90.631 31.963 91.37 32.755 92.113 33.374 92.963 33.821 93.921 34.276 94.875 34.541 95.898 34.615 96.99 34.68 98.086 34.521 99.168 34.138 100.238V100.238L30.01 111.745 24.823 109.884 28.951 98.377C29.082 98.014 29.137 97.653 29.118 97.294 29.099 96.934 29.013 96.593 28.861 96.27 28.712 95.955 28.505 95.677 28.24 95.433 27.974 95.19 27.66 95.003 27.298 94.873V94.873C26.935 94.743 26.574 94.687 26.214 94.706 25.854 94.726 25.514 94.808 25.194 94.954 24.877 95.109 24.597 95.319 24.354 95.585 24.11 95.85 23.923 96.164 23.793 96.527V96.527L21.933 101.713C21.549 102.782 20.983 103.711 20.234 104.501 19.491 105.293 18.64 105.916 17.68 106.369 16.72 106.822 15.695 107.082 14.605 107.15 13.513 107.224 12.433 107.069 11.363 106.686ZM26.395 57.011L40.494 65.619C41.792 66.411 42.861 67.402 43.699 68.591 44.541 69.774 45.125 71.049 45.45 72.415 45.778 73.79 45.838 75.197 45.63 76.634 45.427 78.074 44.929 79.444 44.137 80.742V80.742C43.344 82.04 42.352 83.111 41.159 83.955 39.976 84.797 38.701 85.381 37.335 85.706 35.975 86.035 34.574 86.099 33.134 85.896 31.693 85.694 30.324 85.196 29.025 84.404V84.404L14.926 75.795 17.787 71.11 31.886 79.718C32.527 80.109 33.205 80.356 33.921 80.458 34.64 80.555 35.345 80.522 36.035 80.36 36.72 80.194 37.359 79.9 37.952 79.476 38.546 79.052 39.04 78.517 39.434 77.871V77.871C39.825 77.23 40.074 76.549 40.18 75.828 40.289 75.101 40.261 74.395 40.095 73.71 39.924 73.022 39.629 72.383 39.211 71.793 38.793 71.203 38.264 70.712 37.623 70.321V70.321L23.524 61.713ZM44.672 45.251L40.837 49.193 48.735 56.877 52.571 52.935C53.099 52.392 53.489 51.781 53.743 51.101 54.002 50.426 54.126 49.736 54.116 49.031 54.111 48.322 53.968 47.631 53.686 46.959 53.4 46.282 52.988 45.681 52.45 45.158V45.158C51.907 44.63 51.296 44.234 50.615 43.971 49.935 43.708 49.241 43.584 48.532 43.598 47.827 43.608 47.141 43.751 46.473 44.028 45.801 44.3 45.2 44.708 44.672 45.251ZM52.663 60.698L56.612 64.54 52.77 68.489 33.053 49.307 40.73 41.415C41.439 40.687 42.21 40.08 43.044 39.594 43.883 39.103 44.759 38.737 45.672 38.494 46.579 38.247 47.508 38.117 48.456 38.104 49.41 38.086 50.346 38.19 51.265 38.417 52.189 38.649 53.074 38.996 53.921 39.459 54.778 39.921 55.568 40.505 56.292 41.209V41.209C57.372 42.26 58.19 43.459 58.744 44.804 59.307 46.149 59.596 47.528 59.611 48.942 59.63 50.351 59.381 51.735 58.865 53.095 58.343 54.45 57.554 55.671 56.498 56.756V56.756ZM83.03 36.223L86.131 40.777 70.541 51.392 55.058 28.654 70.648 18.039 73.744 22.585 62.708 30.099 65.809 34.653 73.279 29.567 76.38 34.122 68.91 39.208 71.994 43.737ZM91.039 15.094L85.957 17.195 90.166 27.378 95.249 25.278C95.949 24.988 96.55 24.582 97.052 24.058 97.557 23.54 97.944 22.956 98.214 22.305 98.49 21.652 98.632 20.961 98.64 20.232 98.645 19.497 98.504 18.782 98.218 18.089V18.089C97.928 17.389 97.524 16.783 97.003 16.273 96.483 15.762 95.895 15.372 95.238 15.105 94.587 14.835 93.9 14.695 93.177 14.684 92.452 14.668 91.739 14.805 91.039 15.094ZM92.259 32.443L94.364 37.535 89.272 39.639 78.764 14.217 88.939 10.011C89.878 9.623 90.827 9.371 91.785 9.255 92.749 9.137 93.699 9.147 94.633 9.285 95.564 9.418 96.468 9.666 97.345 10.03 98.227 10.391 99.045 10.857 99.799 11.43 100.556 12.008 101.231 12.678 101.826 13.438 102.429 14.202 102.924 15.051 103.31 15.984V15.984C103.67 16.856 103.911 17.751 104.032 18.671 104.16 19.589 104.172 20.504 104.067 21.417 103.972 22.333 103.759 23.226 103.428 24.096 103.092 24.968 102.653 25.786 102.113 26.548V26.548L107.679 32.031 102.274 34.265 97.935 30.054ZM136.349 7.455L139.347 26.873 133.931 27.709 130.933 8.291C130.874 7.911 130.748 7.567 130.552 7.261 130.351 6.956 130.11 6.701 129.829 6.496 129.541 6.285 129.223 6.136 128.873 6.049 128.524 5.961 128.159 5.947 127.778 6.006V6.006C127.404 6.064 127.063 6.187 126.756 6.376 126.443 6.565 126.184 6.803 125.979 7.09 125.767 7.372 125.618 7.687 125.531 8.037 125.443 8.386 125.429 8.751 125.488 9.132V9.132L128.486 28.55 123.041 29.39 120.043 9.973C119.984 9.592 119.86 9.248 119.672 8.941 119.483 8.634 119.246 8.378 118.959 8.174 118.677 7.962 118.362 7.813 118.012 7.725 117.663 7.638 117.298 7.624 116.917 7.683V7.683C116.536 7.742 116.192 7.865 115.885 8.054 115.578 8.242 115.32 8.481 115.109 8.769 114.903 9.049 114.757 9.364 114.67 9.713 114.583 10.063 114.568 10.428 114.627 10.809V10.809L117.625 30.226 112.18 31.067 109.182 11.649C109.009 10.527 109.055 9.438 109.323 8.381 109.595 7.318 110.046 6.361 110.674 5.511 111.295 4.656 112.068 3.942 112.995 3.369 113.926 2.788 114.954 2.411 116.076 2.238V2.238C117.087 2.082 118.087 2.112 119.074 2.329 120.069 2.545 120.993 2.937 121.847 3.504V3.504C122.483 2.707 123.24 2.056 124.116 1.551 124.986 1.047 125.926 0.717 126.937 0.561V0.561C128.066 0.387 129.159 0.436 130.216 0.71 131.273 0.977 132.229 1.424 133.085 2.051 133.934 2.673 134.649 3.45 135.229 4.382 135.802 5.308 136.176 6.333 136.349 7.455ZM162.643 23.462L162.195 28.953 143.397 27.418 145.636 0 164.435 1.536 163.987 7.017 150.68 5.93 150.232 11.422 159.238 12.157 158.79 17.649 149.783 16.913 149.337 22.375ZM182.152 12.063L176.878 10.503 173.751 21.069 179.025 22.63C179.751 22.845 180.474 22.906 181.194 22.815 181.912 22.729 182.58 22.518 183.199 22.182 183.825 21.848 184.37 21.399 184.834 20.837 185.3 20.268 185.639 19.624 185.852 18.904V18.904C186.067 18.178 186.133 17.453 186.05 16.729 185.966 16.004 185.753 15.332 185.41 14.711 185.074 14.092 184.628 13.551 184.072 13.089 183.518 12.62 182.878 12.278 182.152 12.063ZM172.196 26.324L170.632 31.607 165.349 30.043 173.156 3.665 183.713 6.79C184.687 7.078 185.583 7.478 186.402 7.991 187.226 8.505 187.958 9.109 188.598 9.804 189.239 10.493 189.786 11.254 190.239 12.088 190.698 12.923 191.041 13.801 191.268 14.72 191.493 15.645 191.598 16.59 191.582 17.556 191.571 18.529 191.422 19.5 191.136 20.468V20.468C190.868 21.372 190.492 22.221 190.009 23.013 189.531 23.807 188.965 24.526 188.31 25.17 187.66 25.823 186.933 26.383 186.129 26.852 185.319 27.319 184.464 27.679 183.565 27.932V27.932L184.447 35.695 178.839 34.036 178.112 28.033ZM209.23 40.57L209.431 46.187C207.78 46.526 206.119 46.563 204.448 46.298 202.774 46.038 201.195 45.493 199.711 44.662V44.662C198.57 44.023 197.554 43.261 196.665 42.375 195.775 41.489 195.025 40.517 194.414 39.459 193.794 38.404 193.317 37.285 192.983 36.101 192.649 34.916 192.467 33.711 192.438 32.484 192.415 31.261 192.551 30.039 192.846 28.819 193.141 27.599 193.606 26.42 194.242 25.284V25.284C194.881 24.143 195.645 23.124 196.535 22.229 197.421 21.339 198.391 20.585 199.446 19.965 200.507 19.348 201.629 18.873 202.813 18.539 203.998 18.204 205.203 18.023 206.43 17.994 207.647 17.967 208.866 18.102 210.086 18.396 211.307 18.691 212.488 19.158 213.63 19.797V19.797C215.113 20.628 216.405 21.686 217.505 22.971 218.608 24.251 219.443 25.689 220.011 27.286V27.286L215.123 30.042C214.847 28.89 214.341 27.842 213.606 26.898 212.877 25.957 211.988 25.193 210.938 24.605V24.605C209.878 24.012 208.772 23.655 207.621 23.536 206.469 23.417 205.356 23.509 204.28 23.813 203.202 24.107 202.201 24.609 201.279 25.319 200.357 26.028 199.602 26.907 199.015 27.956V27.956C198.428 29.005 198.076 30.102 197.96 31.248 197.844 32.393 197.941 33.506 198.25 34.585 198.554 35.66 199.056 36.661 199.756 37.586 200.46 38.505 201.342 39.261 202.403 39.855V39.855C203.452 40.442 204.568 40.8 205.751 40.93 206.944 41.057 208.103 40.937 209.23 40.57ZM221.084 45.582L229.379 52.82 233.002 48.669C233.5 48.098 233.861 47.466 234.087 46.773 234.313 46.08 234.402 45.382 234.354 44.679 234.306 43.976 234.121 43.294 233.798 42.633 233.485 41.972 233.045 41.395 232.48 40.901V40.901C231.909 40.404 231.275 40.044 230.578 39.823 229.884 39.597 229.186 39.509 228.483 39.556 227.78 39.604 227.098 39.785 226.437 40.098 225.781 40.416 225.204 40.86 224.706 41.431V41.431ZM237.153 52.291L226.306 64.723 222.154 61.101 225.777 56.949 217.481 49.711 213.859 53.863 209.722 50.254 220.569 37.821C221.569 36.675 222.728 35.787 224.046 35.156 225.359 34.529 226.716 34.166 228.117 34.066 229.517 33.966 230.911 34.137 232.297 34.58 233.683 35.031 234.95 35.757 236.096 36.757V36.757C237.242 37.757 238.13 38.911 238.761 40.219 239.387 41.533 239.75 42.894 239.851 44.304 239.947 45.71 239.771 47.104 239.323 48.485 238.877 49.876 238.153 51.145 237.153 52.291ZM252.732 77.78V77.78C251.707 78.527 250.626 79.113 249.489 79.538 248.353 79.963 247.196 80.231 246.018 80.34 244.84 80.459 243.666 80.427 242.496 80.243 241.331 80.065 240.206 79.738 239.12 79.263 238.029 78.792 237.008 78.18 236.057 77.427 235.106 76.673 234.257 75.784 233.51 74.758V74.758L228.629 68.058 250.865 51.862 255.746 58.563C256.493 59.589 257.079 60.67 257.504 61.806 257.929 62.943 258.201 64.1 258.32 65.279 258.434 66.462 258.397 67.635 258.209 68.799 258.025 69.968 257.699 71.094 257.229 72.175 256.763 73.262 256.154 74.281 255.401 75.233 254.642 76.188 253.752 77.037 252.732 77.78ZM249.489 73.326V73.326C250.407 72.658 251.143 71.858 251.698 70.928 252.255 69.988 252.613 68.996 252.772 67.952 252.941 66.908 252.905 65.854 252.663 64.789 252.423 63.715 251.969 62.719 251.3 61.801V61.801L249.687 59.586 236.35 69.3 237.963 71.515C238.632 72.433 239.435 73.175 240.373 73.741 241.313 74.297 242.302 74.657 243.342 74.821 244.39 74.985 245.447 74.947 246.512 74.705 247.573 74.459 248.565 73.999 249.489 73.326ZM265.246 108.332V108.332C264.041 108.824 262.814 109.14 261.567 109.283 260.319 109.425 259.09 109.41 257.879 109.236 256.67 109.069 255.499 108.746 254.365 108.269 253.231 107.791 252.18 107.183 251.212 106.444 250.237 105.708 249.364 104.841 248.592 103.843 247.819 102.845 247.187 101.743 246.696 100.538V100.538C246.203 99.326 245.884 98.096 245.742 96.849 245.6 95.602 245.619 94.374 245.802 93.167 245.975 91.956 246.301 90.783 246.778 89.649 247.256 88.515 247.866 87.459 248.608 86.483 249.353 85.512 250.222 84.642 251.213 83.872 252.205 83.102 253.304 82.472 254.509 81.98V81.98C255.721 81.487 256.954 81.167 258.207 81.022 259.455 80.88 260.681 80.897 261.886 81.073 263.093 81.255 264.264 81.585 265.398 82.062 266.532 82.54 267.585 83.151 268.555 83.896 269.517 84.637 270.383 85.504 271.153 86.496 271.923 87.487 272.555 88.589 273.048 89.801V89.801C273.54 91.007 273.858 92.236 274.003 93.49 274.147 94.743 274.135 95.971 273.965 97.174 273.789 98.379 273.462 99.548 272.985 100.682 272.507 101.816 271.898 102.864 271.156 103.826 270.418 104.794 269.552 105.663 268.561 106.433 267.563 107.206 266.458 107.839 265.246 108.332ZM263.182 103.267V103.267C264.296 102.813 265.261 102.172 266.078 101.344 266.893 100.51 267.516 99.582 267.946 98.561 268.38 97.531 268.608 96.437 268.632 95.28 268.653 94.117 268.436 92.978 267.983 91.865V91.865C267.524 90.739 266.882 89.771 266.057 88.959 265.231 88.148 264.303 87.526 263.273 87.092 262.246 86.649 261.152 86.418 259.988 86.397 258.825 86.376 257.687 86.592 256.573 87.046V87.046C255.46 87.499 254.501 88.138 253.695 88.961 252.89 89.784 252.272 90.713 251.841 91.75 251.407 92.78 251.176 93.875 251.146 95.035 251.122 96.192 251.34 97.333 251.799 98.459V98.459C252.252 99.572 252.893 100.538 253.721 101.355 254.553 102.164 255.484 102.785 256.514 103.219 257.542 103.646 258.632 103.876 259.786 103.908 260.937 103.934 262.069 103.72 263.182 103.267Z" fill="#454545" data-fill-palette-color="primary"></path><path d="M12.146 143.225c0-1.766 1.431-3.197 3.197-3.197 1.766 0 3.197 1.431 3.197 3.197 0 1.766-1.431 3.197-3.197 3.197-1.766 0-3.197-1.431-3.197-3.197zM263.228 143.225c0-1.766 1.431-3.197 3.197-3.197 1.766 0 3.197 1.431 3.197 3.197 0 1.766-1.431 3.197-3.197 3.197-1.766 0-3.197-1.431-3.197-3.197z" fill="#454545" data-fill-palette-color="primary"></path></svg></g></svg></g></svg></g><g></g></svg></g><defs></defs></svg><rect width="280" height="280" fill="none" stroke="none" visibility="hidden"></rect></g></svg>