<svg class="svg-icon" style="width: 1em; height: 1em;vertical-align: middle;fill: currentColor;overflow: hidden;" viewBox="0 0 1024 1024" version="1.1" xmlns="http://www.w3.org/2000/svg"><path d="M275.475193 589.900772c0 134.350606 108.948181 242.734289 242.734289 242.734289s242.734289-108.948181 242.734289-242.734289-108.948181-242.734289-242.734289-242.734289-242.734289 108.383682-242.734289 242.734289" fill="#FF9F20" /><path d="M322.328556 593.85226c0-125.883131 95.400221-229.186329 218.46086-241.605292-7.902977-0.564498-16.370452-1.128997-24.273429-1.128997-134.350606 0-242.734289 108.948181-242.734289 242.734289s108.948181 242.734289 242.734289 242.734289c8.467475 0 16.370452-0.564498 24.837927-1.128997-123.060639-12.418964-219.025358-115.722161-219.025358-241.605292" fill="#F18700" /><path d="M462.888644 229.750827c34.434399 34.434399 30.482911 93.706725 30.482911 93.706725s-59.272326 3.951488-93.706726-30.48291c-34.434399-34.434399-30.482911-93.706725-30.482911-93.706726s59.272326-3.951488 93.706726 30.482911" fill="#65C27C" /><path d="M499.016538 347.166483c-19.757442 0-75.642778-3.38699-111.206174-39.514884-43.466373-43.466373-39.514884-115.722161-38.950386-118.544653l0.564498-10.16097 10.160971-0.564499c2.822492 0 75.07828-3.951488 118.544652 38.950386 43.466373 43.466373 39.514884 115.722161 38.950386 118.544653l-0.564498 10.16097-10.16097 0.564499c-0.564498 0.564498-2.822492 0.564498-7.338479 0.564498M371.439912 201.52591c0.564498 19.757442 5.644983 63.223815 32.740904 90.319735 27.095921 27.095921 70.562293 32.176406 90.319735 32.740904-0.564498-19.757442-5.644983-63.223815-32.740904-90.319735-27.095921-27.660419-70.562293-32.176406-90.319735-32.740904" fill="" /><path d="M385.55237 425.631753c0 6.209482 3.38699 12.418964 9.031974 15.241455 5.644983 3.38699 12.418964 3.38699 18.063947 0s9.031974-9.031974 9.031974-15.241455-3.38699-12.418964-9.031974-15.241455c-5.644983-3.38699-12.418964-3.38699-18.063947 0s-9.031974 9.031974-9.031974 15.241455M331.925028 596.110254c-3.951488 0-7.338479-2.257993-8.467476-6.209482-5.644983-15.241455-5.644983-36.692393-0.564498-65.481808s19.192944-53.062845 40.643881-72.255789c3.951488-3.38699 9.596472-2.822492 12.418964 0.564499 3.38699 3.951488 2.822492 9.596472-0.564499 12.418963-18.628445 16.370452-30.482911 37.256891-34.998897 62.094818-4.515987 25.402426-4.515987 44.030871-0.564499 56.449835 1.128997 2.822492 0.564498 5.644983-1.128996 7.902977-1.128997 3.38699-3.951488 4.515987-6.77398 4.515987z" fill="#FFFFFF" /><path d="M536.837927 353.940463c-3.951488 0-7.338479-1.693495-9.596472-4.515987-2.257993-3.38699-2.822492-6.77398-2.257993-10.725468 11.289967-41.208379 35.563396-76.207277 68.3043-98.787211 33.305402-23.144432 72.255788-30.482911 108.383682-20.32194 6.209482 1.693495 9.596472 8.467475 7.902977 14.676957-1.693495 6.209482-7.902977 10.16097-14.112458 8.467475-29.353914-7.902977-60.965821-1.693495-88.626241 16.93495-28.224917 19.192944-49.111356 49.675854-58.707828 85.239251-1.128997 5.080485-6.209482 9.031974-11.289967 9.031973" fill="" /><path d="M369.181918 200.396913s-3.951488 59.272326 30.482911 93.706725c34.434399 34.434399 93.706725 30.482911 93.706726 30.482911l-124.189637-124.189636z" fill="#267A38" /></svg>